<svg width="393" height="389" viewBox="0 0 393 389" fill="none" xmlns="http://www.w3.org/2000/svg">
<path d="M113.424 20.9082C153.48 1.51012 197.282 -3.48462 241.582 3.49023C242.558 3.64375 243.534 3.79789 244.54 3.95605V3.95508C273.016 8.68263 300.537 20.5637 322.703 37.9092L322.71 37.9141L325.641 40.126C335.128 47.6016 341.823 56.2283 342.939 67.9072C343.005 74.1763 342.542 79.4085 340.871 84.2217C339.203 89.0274 336.318 93.4483 331.492 98.0723C321.247 107.124 310.95 110.588 296.839 110.322H296.84C277.458 109.627 260.818 101.589 244.701 91.7822L244.687 91.7725L244.671 91.7646C221.902 80.0024 189.89 78.8715 165.294 85.168L165.282 85.1709C138.483 92.7106 116.172 108.796 102.824 131.944H102.823L102.818 131.954C91.1945 153.203 88.562 176.735 95.793 199.671L95.7949 199.678L95.7979 199.685C100.979 214.591 109.782 230.579 125.223 238.17L125.231 238.174L125.239 238.178C141.848 245.617 159.369 244.263 176.903 241.173C206.671 235.953 232.976 238.71 258.428 254.108C261.895 256.388 265.212 258.727 268.335 261.37C268.521 261.528 268.629 261.762 268.629 262.011V262.591C268.629 263.288 269.187 263.863 269.896 263.863C270.868 263.863 271.499 262.808 271.005 261.953C270.743 261.5 270.479 261.043 270.211 260.579C266.195 253.302 263.46 246.27 261.761 238.234V238.233L261.239 235.795C260.316 231.042 259.735 228.055 259.504 225.88C259.275 223.727 259.394 222.409 259.852 220.996C260.673 218.461 262.523 216.264 264.989 215.494C266.786 214.934 268.599 214.925 271.28 215.054C279.226 216.302 286.439 219.604 293.46 223.309L293.476 223.316C295.829 224.456 297.749 225.036 299.729 225.137C301.701 225.237 303.692 224.858 306.179 224.145L306.19 224.142L306.201 224.138C306.914 223.897 307.626 223.655 308.359 223.407L308.36 223.408C312.024 222.335 315.268 221.474 319.055 221.273H319.057C322.232 221.096 324.128 220.992 325.721 220.665C327.337 220.333 328.629 219.775 330.617 218.731C332.437 217.776 334.044 216.454 335.33 214.851C336.198 213.769 337.047 212.674 337.879 211.568L337.88 211.569C340.63 208.03 343.695 205.05 347.055 201.969L347.058 201.966C347.607 201.453 348.157 200.94 348.724 200.412C350.553 198.726 351.801 197.616 353.222 196.854C354.622 196.104 356.22 195.678 358.755 195.443C361.226 195.486 362.265 195.631 363.687 196.373C365.123 197.122 366.319 198.292 367.224 199.67C371.573 206.296 373.281 214.332 373.253 222.121V222.124C373.269 227.194 373.631 231.168 374.855 234.886C376.082 238.607 378.16 242.037 381.555 246.045V246.046C384.779 249.95 386.423 253.877 388.042 258.595L388.054 258.626C388.364 259.365 388.674 260.104 388.994 260.864H388.995C395.933 279.58 390.723 301.948 381.74 319.333C368.714 342.4 347.483 359.07 321.972 369.332C321.862 369.376 321.747 369.412 321.631 369.438C320.649 369.655 320.003 369.797 319.489 369.902C318.723 370.06 318.071 369.233 318.467 368.461L318.468 368.458C319.046 367.313 319.624 366.167 320.221 364.987L320.222 364.988C320.798 363.856 321.373 362.723 321.967 361.556L321.972 361.546L321.977 361.535C325.367 354.057 325.973 344.854 324.176 336.842C323.978 335.962 323.681 335.107 323.285 334.295C322.519 332.721 321.668 331.271 320.684 329.794L320.254 329.158C319.741 328.4 319.228 327.642 318.7 326.861L318.693 326.852L318.686 326.842L318.107 326.092C312.046 318.434 303.402 313.634 293.549 311.204L293.517 311.196L293.483 311.192L292.742 311.115C289.038 310.754 285.379 310.721 281.67 310.758C280.045 310.771 280.044 310.772 278.386 310.785H278.379C270.589 310.95 263.771 311.913 256.398 314.421C252.68 315.66 248.922 316.791 245.154 317.914L241.384 319.039C240.245 319.382 239.107 319.725 237.934 320.079C227.624 323.159 217.264 325.795 206.694 327.966H206.692C204.96 328.33 204.958 328.33 203.194 328.7C180.899 332.633 157.366 330.189 136.168 323.051L136.166 323.05L132.494 321.832C114.526 315.274 97.9709 303.548 84.5869 290.619L83.8564 291.299C86.6356 294.621 89.4611 297.905 92.3145 301.169L94.4355 303.604V303.604L94.4443 303.613C112.966 323.862 140.218 337.509 168.721 339.803H168.728L168.735 339.804C197.755 341.29 223.503 336.674 250.63 327.756L253.26 326.88C266.429 322.439 278.502 318.727 291.9 324.098C300.3 327.903 305.994 332.906 309.928 340.411C310.61 341.713 311.025 343.145 311.166 344.614C311.995 353.222 310.406 360.704 305.019 367.988C298.173 375.866 288.76 380.076 278.463 382.581C269.439 384.776 259.789 385.651 250.644 386.555L246.759 386.947C186.663 392.602 126.961 379.641 79.2529 344.334C73.8029 340.078 68.5937 335.618 63.4414 331.04L63.4346 331.034L61.0117 328.965H61.0107C48.9684 318.336 39.2617 304.979 30.7793 291.695L30.7754 291.69L29.3115 289.458C19.2429 273.959 13.0405 257.871 7.5918 240.53H7.59082C7.31882 239.668 7.04682 238.805 6.7666 237.916H6.76758C-3.57135 204.108 -0.336471 167.474 10.7578 134.325L10.7588 134.322C11.0204 133.526 11.2822 132.73 11.5518 131.909L11.5508 131.908C27.565 83.8525 66.4184 44.423 113.424 20.9082Z" fill="#FD691D" stroke="#432C2C"/>
<path d="M151.34 137.875C152.32 137.673 153.337 137.659 154.315 137.869C158.383 138.741 160.921 140.836 164.354 143.436C165.843 144.523 167.334 145.608 168.827 146.691C169.569 147.234 170.31 147.776 171.074 148.335C174.303 150.651 177.632 152.819 180.994 154.963C182.079 155.657 183.164 156.351 184.283 157.066C185.241 157.672 186.201 158.275 187.161 158.877C189.078 160.078 190.697 161.745 190.554 164.003C190.454 165.584 189.612 167.309 188.462 168.399C184.972 171.704 181.033 174.237 176.834 176.845C170.579 180.751 170.579 180.751 164.519 184.912C163.527 185.626 162.536 186.341 161.514 187.077C160.971 187.481 160.428 187.885 159.879 188.294C159.248 188.764 158.586 189.197 157.867 189.516C156.486 190.128 155.282 190.423 153.988 190.515C151.416 190.696 148.596 190.001 147.827 187.539C147.42 186.233 147.366 184.454 147.798 183.155C148.996 179.556 151.612 178.174 155.307 175.55C158.237 173.559 161.215 171.646 164.221 169.756C164.994 169.266 165.767 168.775 166.564 168.269C169.289 166.54 169.454 162.625 166.845 160.724C162.987 157.912 159.083 155.155 155.187 152.387C154.404 151.83 153.621 151.272 152.814 150.698C152.101 150.191 151.388 149.684 150.653 149.162C150.632 149.147 150.611 149.131 150.59 149.116C148.799 147.813 147.763 145.763 147.763 143.548C147.763 141.327 148.563 138.686 150.687 138.037C150.881 137.978 151.095 137.926 151.34 137.875Z" fill="#282A2E"/>
<path d="M198.269 188.097C199.491 188.103 199.491 188.103 200.737 188.11C201.573 188.108 202.41 188.106 203.271 188.104C205.04 188.103 206.809 188.106 208.578 188.114C211.291 188.125 214.004 188.114 216.717 188.102C218.434 188.103 220.15 188.106 221.867 188.11C222.682 188.106 223.496 188.102 224.335 188.097C226.973 188.119 228.398 188.131 229.398 188.351C231.721 188.861 232.715 191.636 232.776 194.014C232.8 194.925 232.699 195.506 232.422 196.115C231.848 197.374 230.752 198.355 229.458 198.844C226.872 199.82 224.183 199.637 221.207 199.613C220.029 199.617 220.029 199.617 218.827 199.622C217.168 199.624 215.509 199.618 213.851 199.606C211.311 199.59 208.774 199.606 206.234 199.625C204.622 199.623 203.01 199.619 201.397 199.613C200.638 199.619 199.879 199.625 199.096 199.631C196.78 199.601 194.987 199.57 193.14 198.858C191.849 198.359 190.779 197.347 190.327 196.039C190.094 195.364 189.979 194.701 189.939 194.018C189.803 191.643 190.998 189.098 193.282 188.43C194.67 188.024 196.147 188.115 198.269 188.097Z" fill="#25282B"/>
<path d="M328.393 281.686C329.064 280.729 330.225 280.263 331.363 280.528C332.715 280.844 333.721 282.104 333.442 283.464C333.148 284.9 332.56 286.11 331.255 287.4C326.268 291.285 323.469 292.218 317.153 292.142C313.262 291.8 310.468 290.525 307.752 288.314C306.771 287.516 305.867 286.549 305.466 285.35C305.258 284.729 305.313 284.227 305.484 283.067C305.51 282.893 305.557 282.724 305.625 282.562C305.993 281.687 306.907 281.145 307.838 281.329C309.502 281.657 310.445 282.159 311.746 283.534C312.094 283.902 312.456 284.261 312.868 284.554C315.489 286.42 317.55 286.643 320.739 286.574C321.505 286.558 322.274 286.474 323 286.23C325.591 285.359 326.929 283.775 328.393 281.686Z" fill="#FDEADE"/>
<path d="M370.145 276.869C370.579 275.845 371.551 275.161 372.663 275.161C374.025 275.161 375.231 276.171 375.295 277.533C375.371 279.161 375.181 280.639 374.308 282.229C374.112 282.585 373.864 282.909 373.595 283.213C372.132 284.871 370.925 286.034 369.206 286.935C367.555 287.8 365.676 288.093 363.817 288.224C361.235 288.405 358.831 288.392 356.463 287.717C354.219 287.076 351.901 285.394 351.947 283.06C351.955 282.668 351.998 282.194 352.059 281.565C352.074 281.405 352.109 281.251 352.163 281.1C352.546 280.027 353.766 279.504 354.802 279.98C355.936 280.501 356.536 280.799 356.982 281.088C357.812 281.626 358.7 282.095 359.688 282.145C361.523 282.238 362.368 282.258 363.763 282.205C365.602 282.136 367.432 281.437 368.498 279.937C369.178 278.98 369.665 278.001 370.145 276.869Z" fill="#FDF0E7"/>
<path d="M348.124 301.826C350.125 301.757 351.874 303.191 351.291 305.106C351.035 305.949 350.337 306.985 349.537 307.353C346.853 308.586 344.311 308.982 341.291 308.799C340.58 308.755 339.922 308.453 339.401 307.967C338.585 307.205 338.179 306.065 338.436 304.979C338.451 304.913 338.467 304.849 338.483 304.786C338.804 303.527 339.928 302.644 341.213 302.455C343.534 302.114 345.803 301.906 348.124 301.826Z" fill="#FDF0E7"/>
</svg>
